<svg id="Layer_1" data-name="Layer 1" xmlns="http://www.w3.org/2000/svg" viewBox="0 0 462 653"><defs><style>.cls-1{fill:#fff;}</style></defs><title>polygon</title><path class="cls-1" d="M40,652A39.05,39.05,0,0,1,1,613V40A39.05,39.05,0,0,1,40,1H422a39.05,39.05,0,0,1,39,39V531a39.05,39.05,0,0,1-39,39h-2a41,41,0,0,0-41,41v2a39.05,39.05,0,0,1-39,39Z"/><path d="M422,2a38,38,0,0,1,38,38V531a38,38,0,0,1-38,38h-2a42,42,0,0,0-42,42v2a38,38,0,0,1-38,38H40A38,38,0,0,1,2,613V40A38,38,0,0,1,40,2H422m0-2H40A40.12,40.12,0,0,0,0,40V613a40.12,40.12,0,0,0,40,40H340a40.12,40.12,0,0,0,40-40v-2a40.12,40.12,0,0,1,40-40h2a40.12,40.12,0,0,0,40-40V40A40.12,40.12,0,0,0,422,0Z"/><circle cx="426" cy="617" r="36"/><path class="cls-1" d="M430.36,618H419.21a1,1,0,1,1,0-2h11.15l-2.85-2.85a.9.9,0,0,1-.28-.7,1,1,0,0,1,.28-.7,1,1,0,0,1,.72-.31.92.92,0,0,1,.71.28l4.57,4.58a1.08,1.08,0,0,1,.22.32,1.21,1.21,0,0,1,.06.38,1.1,1.1,0,0,1-.06.37,1,1,0,0,1-.22.33l-4.57,4.58a.92.92,0,0,1-.71.28,1,1,0,0,1-.72-.31,1,1,0,0,1-.28-.7.9.9,0,0,1,.28-.7Z"/></svg>